<mxfile host="Electron" agent="Mozilla/5.0 (Macintosh; Intel Mac OS X 10_15_7) AppleWebKit/537.36 (KHTML, like Gecko) draw.io/24.7.17 Chrome/128.0.6613.36 Electron/32.0.1 Safari/537.36" version="24.7.17">
  <diagram name="Page-1" id="v9FPkEy1G7noCbc-8Uvn">
    <mxGraphModel dx="1026" dy="772" grid="1" gridSize="10" guides="1" tooltips="1" connect="1" arrows="1" fold="1" page="1" pageScale="1" pageWidth="850" pageHeight="1100" math="0" shadow="0">
      <root>
        <mxCell id="0" />
        <mxCell id="1" parent="0" />
        <mxCell id="mZwhM_Fa8W8I9a-ugIrR-4" value="" style="whiteSpace=wrap;html=1;aspect=fixed;fillColor=none;" parent="1" vertex="1">
          <mxGeometry x="40" y="40" width="760" height="760" as="geometry" />
        </mxCell>
        <mxCell id="mZwhM_Fa8W8I9a-ugIrR-7" value="" style="endArrow=none;html=1;rounded=0;entryX=0.5;entryY=0;entryDx=0;entryDy=0;" parent="1" source="mZwhM_Fa8W8I9a-ugIrR-29" target="mZwhM_Fa8W8I9a-ugIrR-4" edge="1">
          <mxGeometry width="50" height="50" relative="1" as="geometry">
            <mxPoint x="420" y="800" as="sourcePoint" />
            <mxPoint x="425" y="40" as="targetPoint" />
          </mxGeometry>
        </mxCell>
        <mxCell id="mZwhM_Fa8W8I9a-ugIrR-8" value="Main Menu" style="text;html=1;align=center;verticalAlign=middle;whiteSpace=wrap;rounded=0;" parent="1" vertex="1">
          <mxGeometry x="180" y="40" width="80" height="30" as="geometry" />
        </mxCell>
        <mxCell id="mZwhM_Fa8W8I9a-ugIrR-9" value="Levels" style="text;html=1;align=center;verticalAlign=middle;whiteSpace=wrap;rounded=0;" parent="1" vertex="1">
          <mxGeometry x="580" y="40" width="60" height="30" as="geometry" />
        </mxCell>
        <mxCell id="mZwhM_Fa8W8I9a-ugIrR-10" value="" style="endArrow=none;html=1;rounded=0;entryX=1;entryY=0.039;entryDx=0;entryDy=0;entryPerimeter=0;" parent="1" target="mZwhM_Fa8W8I9a-ugIrR-4" edge="1">
          <mxGeometry width="50" height="50" relative="1" as="geometry">
            <mxPoint x="40" y="70" as="sourcePoint" />
            <mxPoint x="90" y="20" as="targetPoint" />
          </mxGeometry>
        </mxCell>
        <mxCell id="mZwhM_Fa8W8I9a-ugIrR-11" value="Title Screen" style="rounded=1;whiteSpace=wrap;html=1;" parent="1" vertex="1">
          <mxGeometry x="60" y="160" width="110" height="40" as="geometry" />
        </mxCell>
        <mxCell id="mZwhM_Fa8W8I9a-ugIrR-12" value="" style="ellipse;html=1;shape=startState;fillColor=#000000;strokeColor=#ff0000;" parent="1" vertex="1">
          <mxGeometry x="100" y="70" width="30" height="30" as="geometry" />
        </mxCell>
        <mxCell id="mZwhM_Fa8W8I9a-ugIrR-13" value="" style="edgeStyle=orthogonalEdgeStyle;html=1;verticalAlign=bottom;endArrow=open;endSize=8;strokeColor=#ff0000;rounded=0;" parent="1" source="mZwhM_Fa8W8I9a-ugIrR-12" edge="1">
          <mxGeometry relative="1" as="geometry">
            <mxPoint x="115" y="160" as="targetPoint" />
          </mxGeometry>
        </mxCell>
        <mxCell id="mZwhM_Fa8W8I9a-ugIrR-16" style="edgeStyle=orthogonalEdgeStyle;rounded=0;orthogonalLoop=1;jettySize=auto;html=1;entryX=0.5;entryY=0;entryDx=0;entryDy=0;" parent="1" source="mZwhM_Fa8W8I9a-ugIrR-14" target="mZwhM_Fa8W8I9a-ugIrR-15" edge="1">
          <mxGeometry relative="1" as="geometry" />
        </mxCell>
        <mxCell id="mZwhM_Fa8W8I9a-ugIrR-17" value="Close Game" style="edgeLabel;html=1;align=center;verticalAlign=middle;resizable=0;points=[];" parent="mZwhM_Fa8W8I9a-ugIrR-16" connectable="0" vertex="1">
          <mxGeometry x="-0.0125" y="-2" relative="1" as="geometry">
            <mxPoint as="offset" />
          </mxGeometry>
        </mxCell>
        <mxCell id="mZwhM_Fa8W8I9a-ugIrR-20" style="edgeStyle=orthogonalEdgeStyle;rounded=0;orthogonalLoop=1;jettySize=auto;html=1;entryX=0;entryY=0.5;entryDx=0;entryDy=0;" parent="1" source="mZwhM_Fa8W8I9a-ugIrR-14" target="mZwhM_Fa8W8I9a-ugIrR-18" edge="1">
          <mxGeometry relative="1" as="geometry" />
        </mxCell>
        <mxCell id="mZwhM_Fa8W8I9a-ugIrR-26" style="edgeStyle=orthogonalEdgeStyle;rounded=0;orthogonalLoop=1;jettySize=auto;html=1;entryX=0;entryY=0.5;entryDx=0;entryDy=0;" parent="1" source="mZwhM_Fa8W8I9a-ugIrR-14" target="mZwhM_Fa8W8I9a-ugIrR-23" edge="1">
          <mxGeometry relative="1" as="geometry">
            <Array as="points">
              <mxPoint x="115" y="580" />
            </Array>
          </mxGeometry>
        </mxCell>
        <mxCell id="mZwhM_Fa8W8I9a-ugIrR-27" value="Play Game" style="edgeLabel;html=1;align=center;verticalAlign=middle;resizable=0;points=[];" parent="mZwhM_Fa8W8I9a-ugIrR-26" connectable="0" vertex="1">
          <mxGeometry x="-0.7547" relative="1" as="geometry">
            <mxPoint as="offset" />
          </mxGeometry>
        </mxCell>
        <mxCell id="mZwhM_Fa8W8I9a-ugIrR-14" value="" style="strokeWidth=2;html=1;shape=mxgraph.flowchart.decision;whiteSpace=wrap;" parent="1" vertex="1">
          <mxGeometry x="100" y="270" width="30" height="30" as="geometry" />
        </mxCell>
        <mxCell id="mZwhM_Fa8W8I9a-ugIrR-15" value="" style="ellipse;html=1;shape=endState;fillColor=#000000;strokeColor=#ff0000;" parent="1" vertex="1">
          <mxGeometry x="60" y="700" width="30" height="30" as="geometry" />
        </mxCell>
        <mxCell id="mZwhM_Fa8W8I9a-ugIrR-21" style="edgeStyle=orthogonalEdgeStyle;rounded=0;orthogonalLoop=1;jettySize=auto;html=1;entryX=1;entryY=0.75;entryDx=0;entryDy=0;" parent="1" source="mZwhM_Fa8W8I9a-ugIrR-18" target="mZwhM_Fa8W8I9a-ugIrR-11" edge="1">
          <mxGeometry relative="1" as="geometry" />
        </mxCell>
        <mxCell id="mZwhM_Fa8W8I9a-ugIrR-22" value="Close menu" style="edgeLabel;html=1;align=center;verticalAlign=middle;resizable=0;points=[];" parent="mZwhM_Fa8W8I9a-ugIrR-21" connectable="0" vertex="1">
          <mxGeometry x="-0.216" relative="1" as="geometry">
            <mxPoint as="offset" />
          </mxGeometry>
        </mxCell>
        <mxCell id="mZwhM_Fa8W8I9a-ugIrR-18" value="Settings/options" style="rounded=1;whiteSpace=wrap;html=1;" parent="1" vertex="1">
          <mxGeometry x="165" y="265" width="110" height="40" as="geometry" />
        </mxCell>
        <mxCell id="mZwhM_Fa8W8I9a-ugIrR-19" style="edgeStyle=orthogonalEdgeStyle;rounded=0;orthogonalLoop=1;jettySize=auto;html=1;entryX=0.5;entryY=0;entryDx=0;entryDy=0;entryPerimeter=0;" parent="1" source="mZwhM_Fa8W8I9a-ugIrR-11" target="mZwhM_Fa8W8I9a-ugIrR-14" edge="1">
          <mxGeometry relative="1" as="geometry" />
        </mxCell>
        <mxCell id="mZwhM_Fa8W8I9a-ugIrR-24" value="" style="endArrow=none;html=1;rounded=0;entryX=0.5;entryY=0;entryDx=0;entryDy=0;" parent="1" target="mZwhM_Fa8W8I9a-ugIrR-23" edge="1">
          <mxGeometry width="50" height="50" relative="1" as="geometry">
            <mxPoint x="420" y="800" as="sourcePoint" />
            <mxPoint x="420" y="40" as="targetPoint" />
          </mxGeometry>
        </mxCell>
        <mxCell id="mZwhM_Fa8W8I9a-ugIrR-34" style="edgeStyle=orthogonalEdgeStyle;rounded=0;orthogonalLoop=1;jettySize=auto;html=1;" parent="1" source="mZwhM_Fa8W8I9a-ugIrR-23" target="mZwhM_Fa8W8I9a-ugIrR-28" edge="1">
          <mxGeometry relative="1" as="geometry" />
        </mxCell>
        <mxCell id="mZwhM_Fa8W8I9a-ugIrR-23" value="Load Scene and data" style="rounded=1;whiteSpace=wrap;html=1;" parent="1" vertex="1">
          <mxGeometry x="365" y="560" width="110" height="40" as="geometry" />
        </mxCell>
        <mxCell id="mZwhM_Fa8W8I9a-ugIrR-36" style="edgeStyle=orthogonalEdgeStyle;rounded=0;orthogonalLoop=1;jettySize=auto;html=1;entryX=0.5;entryY=1;entryDx=0;entryDy=0;startArrow=classic;startFill=1;" parent="1" source="mZwhM_Fa8W8I9a-ugIrR-28" target="mZwhM_Fa8W8I9a-ugIrR-32" edge="1">
          <mxGeometry relative="1" as="geometry" />
        </mxCell>
        <mxCell id="mZwhM_Fa8W8I9a-ugIrR-37" value="Pause/Unpause Game" style="edgeLabel;html=1;align=center;verticalAlign=middle;resizable=0;points=[];" parent="mZwhM_Fa8W8I9a-ugIrR-36" connectable="0" vertex="1">
          <mxGeometry x="0.3455" y="-1" relative="1" as="geometry">
            <mxPoint x="-1" y="-12" as="offset" />
          </mxGeometry>
        </mxCell>
        <mxCell id="mZwhM_Fa8W8I9a-ugIrR-40" style="edgeStyle=orthogonalEdgeStyle;rounded=0;orthogonalLoop=1;jettySize=auto;html=1;" parent="1" source="mZwhM_Fa8W8I9a-ugIrR-28" target="mZwhM_Fa8W8I9a-ugIrR-39" edge="1">
          <mxGeometry relative="1" as="geometry" />
        </mxCell>
        <mxCell id="mZwhM_Fa8W8I9a-ugIrR-41" value="Solve Puzzle" style="edgeLabel;html=1;align=center;verticalAlign=middle;resizable=0;points=[];" parent="mZwhM_Fa8W8I9a-ugIrR-40" connectable="0" vertex="1">
          <mxGeometry x="0.5226" y="1" relative="1" as="geometry">
            <mxPoint as="offset" />
          </mxGeometry>
        </mxCell>
        <mxCell id="mZwhM_Fa8W8I9a-ugIrR-28" value="" style="strokeWidth=2;html=1;shape=mxgraph.flowchart.decision;whiteSpace=wrap;" parent="1" vertex="1">
          <mxGeometry x="520" y="565" width="30" height="30" as="geometry" />
        </mxCell>
        <mxCell id="mZwhM_Fa8W8I9a-ugIrR-30" value="" style="endArrow=none;html=1;rounded=0;entryX=0.5;entryY=0;entryDx=0;entryDy=0;" parent="1" source="mZwhM_Fa8W8I9a-ugIrR-23" target="mZwhM_Fa8W8I9a-ugIrR-29" edge="1">
          <mxGeometry width="50" height="50" relative="1" as="geometry">
            <mxPoint x="420" y="560" as="sourcePoint" />
            <mxPoint x="420" y="40" as="targetPoint" />
          </mxGeometry>
        </mxCell>
        <mxCell id="mZwhM_Fa8W8I9a-ugIrR-31" style="edgeStyle=orthogonalEdgeStyle;rounded=0;orthogonalLoop=1;jettySize=auto;html=1;entryX=1;entryY=0.25;entryDx=0;entryDy=0;" parent="1" source="mZwhM_Fa8W8I9a-ugIrR-29" target="mZwhM_Fa8W8I9a-ugIrR-11" edge="1">
          <mxGeometry relative="1" as="geometry" />
        </mxCell>
        <mxCell id="mZwhM_Fa8W8I9a-ugIrR-29" value="Save and Quit" style="rounded=1;whiteSpace=wrap;html=1;" parent="1" vertex="1">
          <mxGeometry x="365" y="150" width="110" height="40" as="geometry" />
        </mxCell>
        <mxCell id="mZwhM_Fa8W8I9a-ugIrR-32" value="Pause Menu" style="rounded=1;whiteSpace=wrap;html=1;" parent="1" vertex="1">
          <mxGeometry x="425" y="390" width="110" height="40" as="geometry" />
        </mxCell>
        <mxCell id="mZwhM_Fa8W8I9a-ugIrR-38" value="Autosave and Load Next Scene" style="rounded=1;whiteSpace=wrap;html=1;" parent="1" vertex="1">
          <mxGeometry x="600" y="390" width="110" height="40" as="geometry" />
        </mxCell>
        <mxCell id="mZwhM_Fa8W8I9a-ugIrR-42" style="edgeStyle=orthogonalEdgeStyle;rounded=0;orthogonalLoop=1;jettySize=auto;html=1;entryX=0.5;entryY=1;entryDx=0;entryDy=0;" parent="1" source="mZwhM_Fa8W8I9a-ugIrR-39" target="mZwhM_Fa8W8I9a-ugIrR-38" edge="1">
          <mxGeometry relative="1" as="geometry" />
        </mxCell>
        <mxCell id="mZwhM_Fa8W8I9a-ugIrR-43" value="Enter Final Door" style="edgeLabel;html=1;align=center;verticalAlign=middle;resizable=0;points=[];" parent="mZwhM_Fa8W8I9a-ugIrR-42" connectable="0" vertex="1">
          <mxGeometry x="0.1333" y="-1" relative="1" as="geometry">
            <mxPoint as="offset" />
          </mxGeometry>
        </mxCell>
        <mxCell id="mZwhM_Fa8W8I9a-ugIrR-39" value="Exit Door Open" style="rounded=1;whiteSpace=wrap;html=1;" parent="1" vertex="1">
          <mxGeometry x="600" y="490" width="110" height="40" as="geometry" />
        </mxCell>
        <mxCell id="mZwhM_Fa8W8I9a-ugIrR-45" style="edgeStyle=orthogonalEdgeStyle;rounded=0;orthogonalLoop=1;jettySize=auto;html=1;entryX=0.5;entryY=1;entryDx=0;entryDy=0;entryPerimeter=0;" parent="1" source="mZwhM_Fa8W8I9a-ugIrR-38" target="mZwhM_Fa8W8I9a-ugIrR-28" edge="1">
          <mxGeometry relative="1" as="geometry">
            <Array as="points">
              <mxPoint x="740" y="410" />
              <mxPoint x="740" y="615" />
              <mxPoint x="535" y="615" />
            </Array>
          </mxGeometry>
        </mxCell>
        <mxCell id="mZwhM_Fa8W8I9a-ugIrR-51" style="edgeStyle=orthogonalEdgeStyle;rounded=0;orthogonalLoop=1;jettySize=auto;html=1;entryX=0.75;entryY=0;entryDx=0;entryDy=0;" parent="1" source="mZwhM_Fa8W8I9a-ugIrR-46" target="mZwhM_Fa8W8I9a-ugIrR-32" edge="1">
          <mxGeometry relative="1" as="geometry">
            <Array as="points">
              <mxPoint x="655" y="340" />
              <mxPoint x="508" y="340" />
            </Array>
          </mxGeometry>
        </mxCell>
        <mxCell id="mZwhM_Fa8W8I9a-ugIrR-52" value="Back" style="edgeLabel;html=1;align=center;verticalAlign=middle;resizable=0;points=[];" parent="mZwhM_Fa8W8I9a-ugIrR-51" connectable="0" vertex="1">
          <mxGeometry x="-0.6486" y="2" relative="1" as="geometry">
            <mxPoint as="offset" />
          </mxGeometry>
        </mxCell>
        <mxCell id="mZwhM_Fa8W8I9a-ugIrR-46" value="Settings/Options" style="rounded=1;whiteSpace=wrap;html=1;" parent="1" vertex="1">
          <mxGeometry x="600" y="230" width="110" height="40" as="geometry" />
        </mxCell>
        <mxCell id="mZwhM_Fa8W8I9a-ugIrR-48" style="edgeStyle=orthogonalEdgeStyle;rounded=0;orthogonalLoop=1;jettySize=auto;html=1;entryX=1;entryY=0.5;entryDx=0;entryDy=0;" parent="1" source="mZwhM_Fa8W8I9a-ugIrR-47" target="mZwhM_Fa8W8I9a-ugIrR-29" edge="1">
          <mxGeometry relative="1" as="geometry" />
        </mxCell>
        <mxCell id="mZwhM_Fa8W8I9a-ugIrR-49" style="edgeStyle=orthogonalEdgeStyle;rounded=0;orthogonalLoop=1;jettySize=auto;html=1;entryX=0;entryY=0.5;entryDx=0;entryDy=0;" parent="1" source="mZwhM_Fa8W8I9a-ugIrR-47" target="mZwhM_Fa8W8I9a-ugIrR-46" edge="1">
          <mxGeometry relative="1" as="geometry" />
        </mxCell>
        <mxCell id="mZwhM_Fa8W8I9a-ugIrR-47" value="" style="strokeWidth=2;html=1;shape=mxgraph.flowchart.decision;whiteSpace=wrap;" parent="1" vertex="1">
          <mxGeometry x="465" y="235" width="30" height="30" as="geometry" />
        </mxCell>
        <mxCell id="mZwhM_Fa8W8I9a-ugIrR-50" style="edgeStyle=orthogonalEdgeStyle;rounded=0;orthogonalLoop=1;jettySize=auto;html=1;entryX=0.5;entryY=1;entryDx=0;entryDy=0;entryPerimeter=0;" parent="1" source="mZwhM_Fa8W8I9a-ugIrR-32" target="mZwhM_Fa8W8I9a-ugIrR-47" edge="1">
          <mxGeometry relative="1" as="geometry" />
        </mxCell>
      </root>
    </mxGraphModel>
  </diagram>
</mxfile>
